<svg width="16" height="16" viewBox="0 0 16 16" fill="none" xmlns="http://www.w3.org/2000/svg">
<path d="M8 14.75C7.83333 14.75 7.69583 14.6958 7.5875 14.5875C7.47917 14.4792 7.425 14.3417 7.425 14.175V8.575H1.825C1.65833 8.575 1.52083 8.52083 1.4125 8.4125C1.30417 8.30417 1.25 8.16667 1.25 8C1.25 7.83333 1.30417 7.69583 1.4125 7.5875C1.52083 7.47917 1.65833 7.425 1.825 7.425H7.425V1.825C7.425 1.65833 7.47917 1.52083 7.5875 1.4125C7.69583 1.30417 7.83333 1.25 8 1.25C8.16667 1.25 8.30417 1.30417 8.4125 1.4125C8.52083 1.52083 8.575 1.65833 8.575 1.825V7.425H14.175C14.3417 7.425 14.4792 7.47917 14.5875 7.5875C14.6958 7.69583 14.75 7.83333 14.75 8C14.75 8.16667 14.6958 8.30417 14.5875 8.4125C14.4792 8.52083 14.3417 8.575 14.175 8.575H8.575V14.175C8.575 14.3417 8.52083 14.4792 8.4125 14.5875C8.30417 14.6958 8.16667 14.75 8 14.75Z" fill="white" stroke="white"/>
</svg>
