<svg width="31" height="40" viewBox="0 0 31 40" fill="none" xmlns="http://www.w3.org/2000/svg">
<path d="M22.5985 0C22.8591 0.0939212 23.1406 0.177407 23.3907 0.292199C24.6624 0.897469 25.3087 2.32716 24.9439 3.6838C24.579 5.05087 23.3178 5.93791 21.9001 5.85442C20.5555 5.77094 19.388 4.67519 19.2317 3.33942C19.0545 1.88886 19.8675 0.594834 21.2226 0.1461C21.3685 0.0939212 21.5145 0.0521784 21.6604 0C21.9731 0 22.2858 0 22.5985 0ZM22.1399 1.56535C21.3894 1.55492 20.764 2.17062 20.7535 2.91156C20.7431 3.66293 21.3581 4.28907 22.1086 4.28907C22.8695 4.2995 23.4741 3.69423 23.4845 2.94286C23.495 2.19149 22.8904 1.57579 22.1399 1.56535Z" fill="black"/>
<path d="M3.9193 16.3214C2.20982 15.5074 1.28211 14.2343 1.38635 12.3767C1.46974 10.7801 2.30363 9.61127 3.76295 8.99557C5.43073 8.29638 6.9109 8.70337 8.2347 9.96609C8.31809 9.8513 8.40148 9.74694 8.47445 9.63215C9.92334 7.5137 11.3618 5.39526 12.8107 3.27681C13.3423 2.49413 13.8843 2.49413 14.4159 3.26637C15.5938 4.9987 16.7821 6.72059 17.9496 8.46335C18.0746 8.65119 18.1789 8.88078 18.1893 9.09993C18.2102 9.42343 18.0225 9.71563 17.7098 9.77825C17.4597 9.81999 17.1678 9.72607 16.9176 9.64258C16.803 9.60084 16.73 9.43387 16.657 9.31908C15.7293 7.96244 14.812 6.61623 13.8843 5.25959C13.8114 5.1448 13.7176 5.03001 13.6237 4.89434C13.4882 5.08219 13.3736 5.23872 13.2693 5.39526C11.9455 7.33629 10.6113 9.27733 9.29792 11.2392C9.19368 11.3958 9.14156 11.6462 9.18326 11.8341C9.57936 14.0047 8.12004 16.0918 5.92065 16.4884C5.80599 16.5093 5.66006 16.5719 5.59751 16.6658C4.68023 18.0433 3.65871 19.3582 2.89778 20.8088C-0.677538 27.665 3.33558 36.1388 10.9449 37.8711C17.7098 39.4156 24.5269 34.7613 25.5484 27.8633C25.9862 24.9309 25.3712 22.1967 23.7347 19.713C22.7653 18.2312 21.7334 16.791 20.764 15.3196C20.618 15.1004 20.5138 14.7456 20.5659 14.4952C20.691 13.9212 21.4102 13.7647 21.8376 14.1821C21.8584 14.203 21.8793 14.2134 21.8897 14.2447C23.2552 16.3319 24.85 18.2729 25.9654 20.5166C26.7471 22.1132 27.1641 23.8142 27.2162 25.5883C27.2266 25.8492 27.31 26.0057 27.5393 26.1518C30.1661 27.8216 31.4899 30.9731 30.8541 33.989C30.2078 37.0363 27.7791 39.3843 24.7145 39.8852C22.8278 40.1878 21.0662 39.8122 19.461 38.779C19.2004 38.6121 19.0128 38.6225 18.7522 38.7269C11.1221 41.9202 2.1577 37.2659 0.36483 29.1782C-0.489912 25.3483 0.198051 21.821 2.38702 18.5755C2.88736 17.845 3.39812 17.0937 3.9193 16.3214ZM20.7535 37.7459C23.5471 39.2799 27.1537 38.1633 28.7068 35.3248C30.2912 32.4341 29.0716 29.126 27.1328 27.8424C26.497 32.0793 24.3601 35.3666 20.7535 37.7459ZM2.92905 12.6168C2.93948 13.9317 4.02354 14.9961 5.3265 14.9857C6.60861 14.9648 7.68225 13.8899 7.68225 12.6063C7.68225 11.3019 6.60861 10.227 5.29523 10.227C3.97142 10.2374 2.91863 11.2914 2.92905 12.6168Z" fill="black"/>
<path d="M10.7781 31.5053C7.78648 31.474 5.33692 29.1573 5.12845 26.1727C4.9304 23.2507 7.05683 20.5792 9.96503 20.1618C11.3201 19.9635 12.6022 20.2139 13.7801 20.934C14.3221 21.2679 14.4889 21.6958 14.2387 22.1237C13.9781 22.5515 13.5404 22.6037 12.9775 22.2802C11.5599 21.4662 10.1214 21.4245 8.72461 22.2593C7.31742 23.0942 6.63988 24.3778 6.692 26.0057C6.77539 28.5625 9.28749 30.4513 11.7266 29.8356C12.3521 29.6791 12.8628 29.3452 13.3006 28.8756C13.6446 28.4999 14.1137 28.4686 14.4472 28.7712C14.7912 29.0738 14.7912 29.5226 14.4576 29.9191C13.6029 30.921 12.227 31.5262 10.7781 31.5053Z" fill="black"/>
<path d="M20.5555 25.2961C20.8265 25.0561 21.0141 24.8056 21.2643 24.7117C21.7646 24.5239 22.2337 24.91 22.2441 25.4944C22.2545 27.2267 22.2545 28.9486 22.2441 30.6809C22.2441 31.1192 22.0044 31.4114 21.65 31.4845C21.2122 31.5784 20.9203 31.3906 20.6597 30.827C19.7946 31.2445 18.8981 31.3384 17.9913 30.9836C17.3658 30.7435 16.8759 30.3261 16.5111 29.7626C15.7919 28.6355 15.8752 27.1745 16.7196 26.1205C17.6473 24.9726 18.9502 24.7117 20.5555 25.2961ZM17.5847 28.0824C17.5847 28.959 18.2727 29.6374 19.1483 29.6374C20.003 29.6269 20.6806 28.9486 20.6806 28.0929C20.6806 27.2372 20.0134 26.5588 19.1587 26.5484C18.2831 26.5275 17.5952 27.2059 17.5847 28.0824Z" fill="black"/>
<path d="M20.2011 12.0532C20.1802 12.4811 19.8258 12.815 19.4089 12.7942C18.9919 12.7733 18.6479 12.4185 18.6584 12.001C18.6688 11.5627 19.0336 11.2184 19.4714 11.2392C19.8988 11.2706 20.2219 11.6254 20.2011 12.0532Z" fill="black"/>
</svg>
