<svg width="15" height="15" viewBox="0 0 15 15" fill="none" xmlns="http://www.w3.org/2000/svg">
<path d="M9.59375 10.125C9.66667 10.1979 9.75 10.2344 9.84375 10.2344C9.9375 10.2344 10.026 10.1927 10.1094 10.1094C10.1823 10.0365 10.2214 9.94792 10.2266 9.84375C10.2318 9.73958 10.1927 9.65104 10.1094 9.57812L7.89062 7.35938V4.5625C7.89062 4.46875 7.85677 4.38802 7.78906 4.32031C7.72135 4.2526 7.63542 4.21875 7.53125 4.21875C7.42708 4.21875 7.34375 4.2526 7.28125 4.32031C7.21875 4.38802 7.1875 4.47396 7.1875 4.57812V7.46875C7.1875 7.53125 7.19792 7.58594 7.21875 7.63281C7.23958 7.67969 7.27083 7.72917 7.3125 7.78125L9.59375 10.125ZM7.5 13.4375C6.6875 13.4375 5.91927 13.2812 5.19531 12.9688C4.47135 12.6562 3.84115 12.2318 3.30469 11.6953C2.76823 11.1589 2.34375 10.5286 2.03125 9.80469C1.71875 9.08073 1.5625 8.3125 1.5625 7.5C1.5625 6.6875 1.71875 5.91927 2.03125 5.19531C2.34375 4.47135 2.76823 3.84115 3.30469 3.30469C3.84115 2.76823 4.47135 2.34375 5.19531 2.03125C5.91927 1.71875 6.6875 1.5625 7.5 1.5625C8.3125 1.5625 9.08073 1.71875 9.80469 2.03125C10.5286 2.34375 11.1589 2.76823 11.6953 3.30469C12.2318 3.84115 12.6562 4.47135 12.9688 5.19531C13.2812 5.91927 13.4375 6.6875 13.4375 7.5C13.4375 8.3125 13.2812 9.08073 12.9688 9.80469C12.6562 10.5286 12.2318 11.1589 11.6953 11.6953C11.1589 12.2318 10.5286 12.6562 9.80469 12.9688C9.08073 13.2812 8.3125 13.4375 7.5 13.4375ZM7.5 12.7344C8.9375 12.7344 10.1693 12.2214 11.1953 11.1953C12.2214 10.1693 12.7344 8.9375 12.7344 7.5C12.7344 6.0625 12.2214 4.83073 11.1953 3.80469C10.1693 2.77865 8.9375 2.26562 7.5 2.26562C6.0625 2.26562 4.83073 2.77865 3.80469 3.80469C2.77865 4.83073 2.26562 6.0625 2.26562 7.5C2.26562 8.9375 2.77865 10.1693 3.80469 11.1953C4.83073 12.2214 6.0625 12.7344 7.5 12.7344Z" fill="black"/>
</svg>
